<svg xmlns="http://www.w3.org/2000/svg" xmlns:xlink="http://www.w3.org/1999/xlink" zoomAndPan="magnify" viewBox="0 0 1415.25 570.749988" preserveAspectRatio="xMidYMid meet" version="1.0" style="height:100%;width:auto;display:block"><defs><filter x="0%" y="0%" width="100%" height="100%" id="23731c26b6"><feColorMatrix values="0 0 0 0 1 0 0 0 0 1 0 0 0 0 1 0 0 0 1 0" color-interpolation-filters="sRGB"/></filter><g/><clipPath id="e631a53e69"><path d="M 12 0.0273438 L 1294 0.0273438 L 1294 548 L 12 548 Z M 12 0.0273438 " clip-rule="nonzero"/></clipPath><clipPath id="c1d64569e7"><path d="M 0.472656 1 L 554 1 L 554 546 L 0.472656 546 Z M 0.472656 1 " clip-rule="nonzero"/></clipPath><clipPath id="3b0c30ba3e"><path d="M 154.675781 179.996094 L 394.753906 179.996094 L 394.753906 390.363281 L 154.675781 390.363281 Z M 154.675781 179.996094 " clip-rule="nonzero"/></clipPath><clipPath id="a7d80711db"><path d="M 154.675781 242.058594 C 154.675781 308.875 274.585938 390.363281 274.585938 390.363281 C 274.585938 390.363281 393.96875 308.296875 394.496094 242.058594 C 394.496094 207.863281 366.628906 179.996094 332.429688 179.996094 C 306.144531 179.996094 283.507812 196.832031 274.585938 219.949219 C 265.664062 196.832031 243.027344 179.996094 216.742188 179.996094 C 182.542969 179.996094 154.675781 207.863281 154.675781 242.058594 " clip-rule="nonzero"/></clipPath><clipPath id="8eb1f09115"><path d="M 0.675781 0.996094 L 240.585938 0.996094 L 240.585938 211.363281 L 0.675781 211.363281 Z M 0.675781 0.996094 " clip-rule="nonzero"/></clipPath><clipPath id="d31beabcf3"><path d="M 0.675781 63.058594 C 0.675781 129.875 120.585938 211.363281 120.585938 211.363281 C 120.585938 211.363281 239.96875 129.296875 240.496094 63.058594 C 240.496094 28.863281 212.628906 0.996094 178.429688 0.996094 C 152.144531 0.996094 129.507812 17.832031 120.585938 40.949219 C 111.664062 17.832031 89.027344 0.996094 62.742188 0.996094 C 28.542969 0.996094 0.675781 28.863281 0.675781 63.058594 " clip-rule="nonzero"/></clipPath><clipPath id="aacdfff776"><rect x="0" width="241" y="0" height="212"/></clipPath><mask id="aa2b742e2a"><g filter="url(#23731c26b6)"><rect x="-323.355" width="2037.96" fill="currentColor" y="-125.564997" height="821.879983" fill-opacity="1"/></g></mask><clipPath id="9588fdb00e"><path d="M 1.15625 0.941406 L 192.222656 0.941406 L 192.222656 168.363281 L 1.15625 168.363281 Z M 1.15625 0.941406 " clip-rule="nonzero"/></clipPath><clipPath id="95d1d7ea83"><path d="M 1.15625 50.335938 C 1.15625 103.511719 96.585938 168.363281 96.585938 168.363281 C 96.585938 168.363281 191.59375 103.050781 192.015625 50.335938 C 192.015625 23.121094 169.835938 0.941406 142.621094 0.941406 C 121.703125 0.941406 103.6875 14.339844 96.585938 32.738281 C 89.484375 14.339844 71.46875 0.941406 50.550781 0.941406 C 23.335938 0.941406 1.15625 23.121094 1.15625 50.335938 " clip-rule="nonzero"/></clipPath><clipPath id="8a2a948cca"><path d="M 0.15625 0.941406 L 191 0.941406 L 191 168.363281 L 0.15625 168.363281 Z M 0.15625 0.941406 " clip-rule="nonzero"/></clipPath><clipPath id="4c2711bd6f"><path d="M 0.15625 50.335938 C 0.15625 103.511719 95.585938 168.363281 95.585938 168.363281 C 95.585938 168.363281 190.59375 103.050781 191.015625 50.335938 C 191.015625 23.121094 168.835938 0.941406 141.621094 0.941406 C 120.703125 0.941406 102.6875 14.339844 95.585938 32.738281 C 88.484375 14.339844 70.46875 0.941406 49.550781 0.941406 C 22.335938 0.941406 0.15625 23.121094 0.15625 50.335938 " clip-rule="nonzero"/></clipPath><clipPath id="298d064464"><rect x="0" width="192" y="0" height="169"/></clipPath><clipPath id="7427f8971c"><rect x="0" width="193" y="0" height="169"/></clipPath><clipPath id="80194860c2"><path d="M 624 108 L 1281.15625 108 L 1281.15625 462 L 624 462 Z M 624 108 " clip-rule="nonzero"/></clipPath><clipPath id="c51ae4adc0"><rect x="0" width="658" y="0" height="354"/></clipPath><clipPath id="d2045eaf38"><rect x="0" width="1282" y="0" height="548"/></clipPath></defs><g clip-path="url(#e631a53e69)"><g transform="matrix(1, 0, 0, 1, 12, -0.000000000000055265)"><g clip-path="url(#d2045eaf38)"><path fill="currentColor" d="M 97.015625 257.695312 C 97.015625 163.71875 173.203125 87.535156 267.183594 87.535156 C 310.148438 87.535156 349.386719 103.464844 379.335938 129.734375 C 346.761719 79.234375 290.003906 45.792969 225.441406 45.792969 C 124.375 45.792969 42.433594 127.730469 42.433594 228.800781 C 42.433594 316.609375 104.285156 389.960938 186.796875 407.703125 C 133.355469 379.007812 97.015625 322.601562 97.015625 257.695312 " fill-opacity="1" fill-rule="nonzero"/><g clip-path="url(#c1d64569e7)"><path fill="currentColor" d="M 442.933594 1.292969 C 439.578125 0.0351562 438.089844 3.539062 437.511719 8.253906 C 436.386719 17.464844 440.070312 26.574219 447.050781 32.6875 C 520.011719 96.621094 505.851562 253.257812 458.171875 243.917969 C 426.863281 237.792969 460.203125 144.730469 434.105469 141.566406 C 416.769531 139.457031 401.367188 182.589844 402.464844 239.46875 C 403.097656 272.011719 413.546875 298.871094 422.726562 322.179688 C 436.03125 355.941406 423.808594 394.597656 393.21875 414.117188 C 295.882812 476.238281 165.152344 464.792969 80.128906 379.761719 C 35.210938 334.84375 10.835938 277.160156 6.992188 218.382812 C -11.785156 305.421875 12.722656 399.921875 80.535156 467.449219 C 166.011719 552.570312 302.492188 570.285156 406.953125 509.964844 C 506.113281 452.695312 547.589844 334.855469 553.492188 225.300781 C 560.996094 85.945312 481.015625 15.636719 442.933594 1.292969 Z M 429.265625 77.546875 C 467.171875 110.855469 481.5 169.195312 479.816406 216.183594 C 485.761719 201.613281 488.996094 180.277344 488.253906 157.433594 C 487.273438 126.898438 480.003906 98.296875 467.84375 75.117188 C 452.121094 59.992188 436.628906 50.421875 425.035156 46.050781 C 421.597656 44.761719 420.121094 48.457031 419.570312 53.339844 C 418.550781 62.5 422.34375 71.464844 429.265625 77.546875 " fill-opacity="1" fill-rule="nonzero"/></g><g clip-path="url(#3b0c30ba3e)"><g clip-path="url(#a7d80711db)"><g transform="matrix(1, 0, 0, 1, 154, 179)"><g clip-path="url(#aacdfff776)"><g clip-path="url(#8eb1f09115)"><g clip-path="url(#d31beabcf3)"><path fill="currentColor" d="M 0.675781 0.996094 L 240.277344 0.996094 L 240.277344 211.363281 L 0.675781 211.363281 Z M 0.675781 0.996094 " fill-opacity="1" fill-rule="nonzero"/></g></g></g></g></g></g><g mask="url(#aa2b742e2a)"><g transform="matrix(1, 0, 0, 1, 178, 222)"><g clip-path="url(#7427f8971c)"><g clip-path="url(#9588fdb00e)"><g clip-path="url(#95d1d7ea83)"><g transform="matrix(1, 0, 0, 1, 1, -0.000000000000113687)"><g clip-path="url(#298d064464)"><g clip-path="url(#8a2a948cca)"><g clip-path="url(#4c2711bd6f)"><path fill="currentColor" d="M 0.15625 0.941406 L 190.839844 0.941406 L 190.839844 168.363281 L 0.15625 168.363281 Z M 0.15625 0.941406 " fill-opacity="1" fill-rule="nonzero"/></g></g></g></g></g></g></g></g></g><g clip-path="url(#80194860c2)"><g transform="matrix(1, 0, 0, 1, 624, 108)"><g clip-path="url(#c51ae4adc0)"><g fill="currentColor" fill-opacity="1"><g transform="translate(1.089345, 264.882722)"><g><path d="M 59.40625 0.75 C 45.3125 0.75 34.988281 -2.5625 28.4375 -9.1875 C 21.894531 -15.8125 18.625 -26.171875 18.625 -40.265625 L 18.625 -51.09375 C 18.625 -54.445312 20.300781 -56.125 23.65625 -56.125 L 55.375 -56.125 C 58.726562 -56.125 60.40625 -54.445312 60.40625 -51.09375 L 60.40625 -44.546875 C 60.40625 -39.515625 61.535156 -35.863281 63.796875 -33.59375 C 66.066406 -31.332031 69.800781 -30.203125 75 -30.203125 L 141.453125 -30.203125 C 146.992188 -30.203125 150.9375 -31.375 153.28125 -33.71875 C 155.632812 -36.070312 156.8125 -39.9375 156.8125 -45.3125 L 156.8125 -57.140625 C 156.8125 -62.671875 155.632812 -66.609375 153.28125 -68.953125 C 150.9375 -71.304688 146.992188 -72.484375 141.453125 -72.484375 L 62.921875 -72.484375 C 48.828125 -72.484375 38.460938 -75.753906 31.828125 -82.296875 C 25.203125 -88.847656 21.890625 -99.171875 21.890625 -113.265625 L 21.890625 -136.171875 C 21.890625 -150.265625 25.203125 -160.582031 31.828125 -167.125 C 38.460938 -173.675781 48.828125 -176.953125 62.921875 -176.953125 L 149.265625 -176.953125 C 163.359375 -176.953125 173.675781 -173.675781 180.21875 -167.125 C 186.757812 -160.582031 190.03125 -150.265625 190.03125 -136.171875 L 190.03125 -125.59375 C 190.03125 -122.238281 188.351562 -120.5625 185 -120.5625 L 153.28125 -120.5625 C 149.925781 -120.5625 148.25 -122.15625 148.25 -125.34375 L 148.25 -131.640625 C 148.25 -136.671875 147.070312 -140.316406 144.71875 -142.578125 C 142.375 -144.847656 138.519531 -145.984375 133.15625 -145.984375 L 78.03125 -145.984375 C 72.65625 -145.984375 68.789062 -144.804688 66.4375 -142.453125 C 64.09375 -140.109375 62.921875 -136.253906 62.921875 -130.890625 L 62.921875 -118.546875 C 62.921875 -113.179688 64.09375 -109.320312 66.4375 -106.96875 C 68.789062 -104.625 72.65625 -103.453125 78.03125 -103.453125 L 156.5625 -103.453125 C 170.820312 -103.453125 181.222656 -100.175781 187.765625 -93.625 C 194.316406 -87.082031 197.59375 -76.765625 197.59375 -62.671875 L 197.59375 -40.265625 C 197.59375 -26.171875 194.316406 -15.8125 187.765625 -9.1875 C 181.222656 -2.5625 170.820312 0.75 156.5625 0.75 Z M 59.40625 0.75 "/></g></g></g><g fill="currentColor" fill-opacity="1"><g transform="translate(202.198216, 264.882722)"><g><path d="M 201.109375 -7.296875 C 201.609375 -6.296875 201.859375 -5.289062 201.859375 -4.28125 C 201.859375 -1.425781 199.929688 0 196.078125 0 L 167.375 0 C 165.53125 0 164.0625 -0.332031 162.96875 -1 C 161.882812 -1.675781 160.921875 -2.9375 160.078125 -4.78125 L 145.984375 -35.734375 L 52.859375 -35.734375 L 38.515625 -4.78125 C 37.835938 -3.101562 36.910156 -1.882812 35.734375 -1.125 C 34.566406 -0.375 33.0625 0 31.21875 0 L 2.265625 0 C 0.421875 0 -0.957031 -0.414062 -1.875 -1.25 C -2.800781 -2.09375 -3.265625 -3.269531 -3.265625 -4.78125 C -3.265625 -5.789062 -3.015625 -6.796875 -2.515625 -7.796875 L 76.515625 -171.65625 C 77.359375 -173.332031 78.320312 -174.503906 79.40625 -175.171875 C 80.5 -175.847656 81.96875 -176.1875 83.8125 -176.1875 L 115.03125 -176.1875 C 116.875 -176.1875 118.335938 -175.847656 119.421875 -175.171875 C 120.515625 -174.503906 121.484375 -173.332031 122.328125 -171.65625 Z M 98.671875 -135.671875 L 80.296875 -96.65625 L 66.953125 -68.46875 L 131.640625 -68.46875 L 100.421875 -135.671875 Z M 98.671875 -135.671875 "/></g></g></g><g fill="currentColor" fill-opacity="1"><g transform="translate(388.204998, 264.882722)"><g><path d="M 28.953125 0 C 25.585938 0 23.90625 -1.675781 23.90625 -5.03125 L 23.90625 -171.15625 C 23.90625 -174.507812 25.585938 -176.1875 28.953125 -176.1875 L 70.484375 -176.1875 C 72.328125 -176.1875 73.789062 -175.847656 74.875 -175.171875 C 75.96875 -174.503906 76.9375 -173.332031 77.78125 -171.65625 L 139.4375 -48.078125 L 141.453125 -48.078125 L 203.125 -171.65625 C 203.789062 -173.332031 204.671875 -174.503906 205.765625 -175.171875 C 206.859375 -175.847656 208.328125 -176.1875 210.171875 -176.1875 L 251.703125 -176.1875 C 255.054688 -176.1875 256.734375 -174.507812 256.734375 -171.15625 L 256.734375 -5.03125 C 256.734375 -1.675781 255.054688 0 251.703125 0 L 222 0 C 220.15625 0 218.8125 -0.375 217.96875 -1.125 C 217.132812 -1.882812 216.71875 -3.1875 216.71875 -5.03125 L 216.71875 -114.78125 L 214.953125 -114.78125 L 159.578125 -4.78125 C 158.742188 -3.101562 157.78125 -1.882812 156.6875 -1.125 C 155.59375 -0.375 154.125 0 152.28125 0 L 128.375 0 C 126.6875 0 125.296875 -0.375 124.203125 -1.125 C 123.117188 -1.882812 122.160156 -3.101562 121.328125 -4.78125 L 65.953125 -114.78125 L 63.9375 -114.78125 L 63.9375 -5.03125 C 63.9375 -1.675781 62.257812 0 58.90625 0 Z M 28.953125 0 "/></g></g></g></g></g></g></g></g></g></svg>