<svg xmlns="http://www.w3.org/2000/svg" xmlns:xlink="http://www.w3.org/1999/xlink" zoomAndPan="magnify" viewBox="0 0 1664.88 469.499982" preserveAspectRatio="xMidYMid meet" version="1.0" style="height:100%;width:auto;display:block"><defs><g/><clipPath id="e8cf23a351"><path d="M 0.824219 0 L 573.964844 0 L 573.964844 469 L 0.824219 469 Z M 0.824219 0 " clip-rule="nonzero"/></clipPath></defs><g clip-path="url(#e8cf23a351)"><path fill="currentColor" d="M 104.980469 265.078125 L 104.980469 369.234375 L 287.253906 468.707031 L 469.527344 369.234375 L 469.527344 265.078125 L 287.253906 364.550781 Z M 287.253906 0.00390625 L 0.824219 156.238281 L 287.253906 312.472656 L 521.605469 184.621094 L 521.605469 364.550781 L 573.683594 364.550781 L 573.683594 156.238281 Z M 287.253906 0.00390625 " fill-opacity="1" fill-rule="nonzero"/></g><g fill="currentColor" fill-opacity="1"><g transform="translate(637.574545, 322.010722)"><g><path d="M 56.34375 -55.59375 L 56.34375 -39.25 C 56.34375 -33.875 57.429688 -30.140625 59.609375 -28.046875 C 61.796875 -25.953125 65.65625 -24.90625 71.1875 -24.90625 L 116.46875 -24.90625 C 121 -24.90625 124.226562 -25.785156 126.15625 -27.546875 C 128.082031 -29.304688 129.046875 -32.03125 129.046875 -35.71875 L 129.046875 -37.734375 C 129.046875 -40.921875 130.722656 -42.515625 134.078125 -42.515625 L 164.515625 -42.515625 C 167.867188 -42.515625 169.546875 -40.835938 169.546875 -37.484375 L 169.546875 -33.96875 C 169.546875 -22.394531 166.484375 -13.710938 160.359375 -7.921875 C 154.242188 -2.140625 144.644531 0.75 131.5625 0.75 L 56.609375 0.75 C 30.609375 0.75 17.609375 -12.328125 17.609375 -38.484375 L 17.609375 -92.578125 C 17.609375 -118.566406 30.609375 -131.5625 56.609375 -131.5625 L 131.3125 -131.5625 C 157.144531 -131.5625 170.0625 -118.566406 170.0625 -92.578125 L 170.0625 -60.625 C 170.0625 -57.269531 168.46875 -55.59375 165.28125 -55.59375 Z M 71.1875 -105.90625 C 65.65625 -105.90625 61.796875 -104.769531 59.609375 -102.5 C 57.429688 -100.238281 56.34375 -96.425781 56.34375 -91.0625 L 56.34375 -80.25 L 131.0625 -80.25 L 131.0625 -91.0625 C 131.0625 -96.425781 129.882812 -100.238281 127.53125 -102.5 C 125.1875 -104.769531 121.332031 -105.90625 115.96875 -105.90625 Z M 71.1875 -105.90625 "/></g></g></g><g fill="currentColor" fill-opacity="1"><g transform="translate(812.664574, 322.010722)"><g><path d="M 15.34375 -58.859375 C 12.15625 -58.859375 10.5625 -60.535156 10.5625 -63.890625 L 10.5625 -87.046875 C 10.5625 -90.398438 12.15625 -92.078125 15.34375 -92.078125 L 109.4375 -92.078125 C 112.789062 -92.078125 114.46875 -90.398438 114.46875 -87.046875 L 114.46875 -63.890625 C 114.46875 -60.535156 112.789062 -58.859375 109.4375 -58.859375 Z M 15.34375 -58.859375 "/></g></g></g><g fill="currentColor" fill-opacity="1"><g transform="translate(925.114585, 322.010722)"><g><path d="M 59.375 0.75 C 45.28125 0.75 34.960938 -2.5625 28.421875 -9.1875 C 21.878906 -15.8125 18.609375 -26.164062 18.609375 -40.25 L 18.609375 -51.0625 C 18.609375 -54.414062 20.285156 -56.09375 23.640625 -56.09375 L 55.34375 -56.09375 C 58.695312 -56.09375 60.375 -54.414062 60.375 -51.0625 L 60.375 -44.53125 C 60.375 -39.5 61.503906 -35.847656 63.765625 -33.578125 C 66.035156 -31.316406 69.769531 -30.1875 74.96875 -30.1875 L 141.375 -30.1875 C 146.914062 -30.1875 150.859375 -31.359375 153.203125 -33.703125 C 155.546875 -36.054688 156.71875 -39.914062 156.71875 -45.28125 L 156.71875 -57.109375 C 156.71875 -62.640625 155.546875 -66.578125 153.203125 -68.921875 C 150.859375 -71.273438 146.914062 -72.453125 141.375 -72.453125 L 62.890625 -72.453125 C 48.804688 -72.453125 38.453125 -75.722656 31.828125 -82.265625 C 25.203125 -88.804688 21.890625 -99.117188 21.890625 -113.203125 L 21.890625 -136.09375 C 21.890625 -150.1875 25.203125 -160.5 31.828125 -167.03125 C 38.453125 -173.570312 48.804688 -176.84375 62.890625 -176.84375 L 149.171875 -176.84375 C 163.265625 -176.84375 173.582031 -173.570312 180.125 -167.03125 C 186.664062 -160.5 189.9375 -150.1875 189.9375 -136.09375 L 189.9375 -125.53125 C 189.9375 -122.175781 188.257812 -120.5 184.90625 -120.5 L 153.203125 -120.5 C 149.847656 -120.5 148.171875 -122.09375 148.171875 -125.28125 L 148.171875 -131.5625 C 148.171875 -136.59375 146.992188 -140.238281 144.640625 -142.5 C 142.296875 -144.769531 138.441406 -145.90625 133.078125 -145.90625 L 77.984375 -145.90625 C 72.617188 -145.90625 68.757812 -144.726562 66.40625 -142.375 C 64.0625 -140.03125 62.890625 -136.175781 62.890625 -130.8125 L 62.890625 -118.484375 C 62.890625 -113.117188 64.0625 -109.257812 66.40625 -106.90625 C 68.757812 -104.5625 72.617188 -103.390625 77.984375 -103.390625 L 156.46875 -103.390625 C 170.726562 -103.390625 181.128906 -100.117188 187.671875 -93.578125 C 194.210938 -87.035156 197.484375 -76.722656 197.484375 -62.640625 L 197.484375 -40.25 C 197.484375 -26.164062 194.210938 -15.8125 187.671875 -9.1875 C 181.128906 -2.5625 170.726562 0.75 156.46875 0.75 Z M 59.375 0.75 "/></g></g></g><g fill="currentColor" fill-opacity="1"><g transform="translate(1126.115978, 322.010722)"><g><path d="M 201 -7.296875 C 201.5 -6.285156 201.75 -5.28125 201.75 -4.28125 C 201.75 -1.425781 199.820312 0 195.96875 0 L 167.296875 0 C 165.441406 0 163.96875 -0.332031 162.875 -1 C 161.789062 -1.675781 160.832031 -2.9375 160 -4.78125 L 145.90625 -35.71875 L 52.828125 -35.71875 L 38.484375 -4.78125 C 37.816406 -3.101562 36.894531 -1.882812 35.71875 -1.125 C 34.550781 -0.375 33.039062 0 31.1875 0 L 2.265625 0 C 0.421875 0 -0.957031 -0.414062 -1.875 -1.25 C -2.800781 -2.09375 -3.265625 -3.269531 -3.265625 -4.78125 C -3.265625 -5.789062 -3.015625 -6.796875 -2.515625 -7.796875 L 76.46875 -171.5625 C 77.3125 -173.238281 78.273438 -174.410156 79.359375 -175.078125 C 80.453125 -175.753906 81.921875 -176.09375 83.765625 -176.09375 L 114.96875 -176.09375 C 116.8125 -176.09375 118.273438 -175.753906 119.359375 -175.078125 C 120.453125 -174.410156 121.421875 -173.238281 122.265625 -171.5625 Z M 98.609375 -135.59375 L 80.25 -96.59375 L 66.921875 -68.421875 L 131.5625 -68.421875 L 100.375 -135.59375 Z M 98.609375 -135.59375 "/></g></g></g><g fill="currentColor" fill-opacity="1"><g transform="translate(1312.023398, 322.010722)"><g><path d="M 28.9375 0 C 25.582031 0 23.90625 -1.675781 23.90625 -5.03125 L 23.90625 -171.0625 C 23.90625 -174.414062 25.582031 -176.09375 28.9375 -176.09375 L 70.4375 -176.09375 C 72.28125 -176.09375 73.742188 -175.753906 74.828125 -175.078125 C 75.921875 -174.410156 76.890625 -173.238281 77.734375 -171.5625 L 139.359375 -48.046875 L 141.375 -48.046875 L 203.015625 -171.5625 C 203.679688 -173.238281 204.554688 -174.410156 205.640625 -175.078125 C 206.734375 -175.753906 208.207031 -176.09375 210.0625 -176.09375 L 251.5625 -176.09375 C 254.914062 -176.09375 256.59375 -174.414062 256.59375 -171.0625 L 256.59375 -5.03125 C 256.59375 -1.675781 254.914062 0 251.5625 0 L 221.875 0 C 220.03125 0 218.6875 -0.375 217.84375 -1.125 C 217.007812 -1.882812 216.59375 -3.1875 216.59375 -5.03125 L 216.59375 -114.71875 L 214.828125 -114.71875 L 159.484375 -4.78125 C 158.648438 -3.101562 157.6875 -1.882812 156.59375 -1.125 C 155.507812 -0.375 154.046875 0 152.203125 0 L 128.296875 0 C 126.617188 0 125.234375 -0.375 124.140625 -1.125 C 123.054688 -1.882812 122.09375 -3.101562 121.25 -4.78125 L 65.90625 -114.71875 L 63.890625 -114.71875 L 63.890625 -5.03125 C 63.890625 -1.675781 62.210938 0 58.859375 0 Z M 28.9375 0 "/></g></g></g></svg>