<svg xmlns="http://www.w3.org/2000/svg" xmlns:xlink="http://www.w3.org/1999/xlink" zoomAndPan="magnify" viewBox="0 0 1993.5 573.000005" preserveAspectRatio="xMidYMid meet" version="1.0" style="height:100%;width:auto;display:block"><defs><g/><clipPath id="5b68e1e5e3"><path d="M 1.488281 0 L 574 0 L 574 572 L 1.488281 572 Z M 1.488281 0 " clip-rule="nonzero"/></clipPath></defs><g clip-path="url(#5b68e1e5e3)"><path fill="currentColor" d="M 287.722656 418.582031 C 214.507812 418.582031 155.207031 359.28125 155.207031 286.234375 C 155.207031 213.019531 214.507812 153.71875 287.722656 153.71875 C 360.769531 153.71875 420.070312 213.019531 420.070312 286.234375 C 420.070312 359.28125 360.769531 418.582031 287.722656 418.582031 Z M 343.378906 211.363281 C 339.566406 208.710938 338.90625 203.410156 341.554688 199.765625 C 344.371094 196.121094 349.507812 195.292969 353.316406 198.109375 C 357.625 201.421875 361.765625 205.066406 365.738281 209.042969 C 369.714844 213.019531 373.195312 217.160156 376.507812 221.632812 C 379.15625 225.441406 378.328125 230.578125 374.519531 233.226562 C 370.875 235.878906 365.738281 235.046875 362.925781 231.40625 C 360.273438 227.59375 357.125 223.949219 353.980469 220.636719 C 350.667969 217.324219 347.1875 214.34375 343.378906 211.363281 Z M 375.84375 256.085938 C 374.355469 251.777344 376.671875 247.140625 380.980469 245.648438 C 385.285156 244.160156 390.089844 246.476562 391.582031 250.949219 C 393.402344 256.582031 394.894531 262.378906 395.886719 268.175781 C 396.714844 274.140625 397.210938 280.105469 397.210938 285.902344 C 397.210938 305.777344 391.910156 324.992188 382.140625 341.558594 C 372.367188 358.121094 358.121094 372.203125 340.726562 381.808594 C 336.753906 384.128906 331.617188 382.636719 329.464844 378.496094 C 327.144531 374.519531 328.636719 369.550781 332.777344 367.234375 C 347.519531 359.117188 359.445312 347.191406 367.726562 333.109375 C 376.011719 319.195312 380.648438 302.796875 380.648438 285.902344 C 380.648438 280.765625 380.316406 275.796875 379.488281 270.828125 C 378.660156 265.859375 377.335938 260.890625 375.84375 256.085938 Z M 572.960938 568.65625 C 531.882812 527.742188 490.96875 486.660156 449.886719 445.582031 L 424.378906 420.074219 L 405.824219 401.6875 C 434.980469 371.871094 452.867188 331.121094 452.867188 286.234375 C 452.867188 240.515625 434.316406 199.269531 404.5 169.453125 C 374.519531 139.472656 333.273438 121.085938 287.722656 121.085938 C 242.003906 121.085938 200.757812 139.472656 170.941406 169.453125 C 140.960938 199.269531 122.574219 240.515625 122.574219 286.234375 C 122.574219 331.785156 140.960938 373.03125 170.941406 403.011719 C 200.757812 432.828125 242.003906 451.378906 287.722656 451.378906 C 321.183594 451.378906 352.15625 441.441406 378.164062 424.378906 L 377.832031 424.710938 L 396.714844 443.59375 C 363.585938 466.617188 325.15625 477.71875 286.894531 477.550781 L 286.894531 477.71875 C 249.457031 477.71875 211.195312 466.617188 176.742188 442.105469 C 167.960938 435.808594 159.84375 429.019531 152.390625 421.398438 C 114.292969 383.464844 96.070312 334.269531 96.402344 285.40625 L 96.238281 285.40625 C 96.070312 247.96875 107.167969 209.707031 131.851562 175.25 C 137.980469 166.472656 144.9375 158.355469 152.554688 150.902344 C 190.488281 112.804688 239.683594 94.582031 288.550781 94.914062 L 288.550781 94.75 C 325.820312 94.582031 364.082031 105.679688 398.703125 130.363281 C 407.316406 136.492188 415.433594 143.449219 423.054688 151.066406 C 460.984375 189 479.207031 238.195312 479.039062 287.0625 L 479.207031 287.0625 C 479.207031 324.332031 468.109375 362.59375 443.59375 397.214844 L 442.597656 398.539062 L 468.273438 424.378906 C 499.082031 384.128906 514.820312 335.761719 514.984375 287.0625 L 515.152344 287.0625 C 515.316406 239.519531 500.738281 191.816406 470.925781 151.398438 L 486.992188 135.332031 C 520.949219 179.890625 537.84375 233.0625 537.679688 286.234375 C 537.511719 340.398438 519.789062 394.730469 484.339844 440.445312 L 510.179688 466.121094 C 518.464844 456.019531 525.753906 445.417969 532.378906 434.484375 C 560.207031 388.601562 573.789062 337.746094 573.789062 287.0625 L 573.953125 287.0625 C 573.953125 213.183594 545.296875 139.304688 488.648438 82.492188 L 447.070312 124.066406 C 403.507812 81 346.195312 59.136719 288.550781 58.804688 L 288.550781 58.636719 C 241.011719 58.472656 193.304688 73.050781 152.886719 103.03125 L 136.820312 86.964844 C 181.378906 53.007812 234.550781 36.109375 287.722656 36.109375 L 287.722656 36.277344 C 341.886719 36.441406 396.21875 54.164062 441.9375 89.449219 L 467.609375 63.773438 C 457.507812 55.492188 446.90625 48.035156 435.972656 41.410156 C 390.089844 13.75 339.238281 0.164062 288.550781 0 C 214.671875 0 140.796875 28.492188 83.980469 85.308594 L 125.554688 126.71875 C 82.488281 170.449219 60.625 227.761719 60.292969 285.40625 L 60.128906 285.40625 C 59.960938 332.777344 74.539062 380.484375 104.519531 421.066406 L 88.453125 437.132812 C 54.496094 392.410156 37.597656 339.40625 37.597656 286.234375 L 37.765625 286.234375 C 37.929688 231.902344 55.65625 177.570312 90.9375 132.019531 L 65.261719 106.179688 C 56.980469 116.28125 49.527344 126.882812 42.898438 137.980469 C 15.238281 183.699219 1.65625 234.71875 1.488281 285.40625 C 1.488281 359.28125 29.980469 433.160156 86.796875 489.808594 L 128.207031 448.398438 C 171.9375 491.300781 229.25 513.332031 286.894531 513.496094 L 286.894531 513.660156 C 334.269531 513.828125 381.972656 499.25 422.554688 469.433594 L 438.625 485.503906 C 393.898438 519.460938 340.894531 536.355469 287.722656 536.1875 C 233.390625 536.023438 179.058594 518.300781 133.507812 482.851562 L 107.667969 508.691406 C 117.769531 516.976562 128.371094 524.261719 139.46875 530.890625 C 180.382812 555.734375 225.441406 569.316406 270.660156 571.804688 L 304.453125 571.804688 C 361.101562 568.488281 416.925781 548.117188 464.296875 511.175781 L 478.210938 525.089844 L 485.003906 531.71875 L 490.136719 537.019531 L 496.929688 543.808594 C 502.726562 549.605469 508.523438 555.402344 514.324219 561.203125 L 521.777344 568.65625 Z M 42.898438 137.816406 Z M 435.972656 41.410156 Z M 532.378906 434.484375 Z M 139.304688 530.890625 Z M 139.304688 530.890625 " fill-opacity="1" fill-rule="evenodd"/></g><g fill="currentColor" fill-opacity="1"><g transform="translate(637.803444, 373.504124)"><g><path d="M 59.328125 0.75 C 45.253906 0.75 34.945312 -2.554688 28.40625 -9.171875 C 21.875 -15.796875 18.609375 -26.144531 18.609375 -40.21875 L 18.609375 -51.03125 C 18.609375 -54.382812 20.28125 -56.0625 23.625 -56.0625 L 55.3125 -56.0625 C 58.65625 -56.0625 60.328125 -54.382812 60.328125 -51.03125 L 60.328125 -44.5 C 60.328125 -39.46875 61.457031 -35.820312 63.71875 -33.5625 C 65.988281 -31.300781 69.722656 -30.171875 74.921875 -30.171875 L 141.28125 -30.171875 C 146.8125 -30.171875 150.75 -31.34375 153.09375 -33.6875 C 155.4375 -36.03125 156.609375 -39.882812 156.609375 -45.25 L 156.609375 -57.0625 C 156.609375 -62.59375 155.4375 -66.53125 153.09375 -68.875 C 150.75 -71.226562 146.8125 -72.40625 141.28125 -72.40625 L 62.84375 -72.40625 C 48.769531 -72.40625 38.421875 -75.671875 31.796875 -82.203125 C 25.179688 -88.742188 21.875 -99.050781 21.875 -113.125 L 21.875 -136 C 21.875 -150.082031 25.179688 -160.390625 31.796875 -166.921875 C 38.421875 -173.460938 48.769531 -176.734375 62.84375 -176.734375 L 149.078125 -176.734375 C 163.148438 -176.734375 173.453125 -173.460938 179.984375 -166.921875 C 186.523438 -160.390625 189.796875 -150.082031 189.796875 -136 L 189.796875 -125.4375 C 189.796875 -122.09375 188.117188 -120.421875 184.765625 -120.421875 L 153.09375 -120.421875 C 149.738281 -120.421875 148.0625 -122.007812 148.0625 -125.1875 L 148.0625 -131.484375 C 148.0625 -136.503906 146.890625 -140.144531 144.546875 -142.40625 C 142.203125 -144.675781 138.347656 -145.8125 132.984375 -145.8125 L 77.9375 -145.8125 C 72.570312 -145.8125 68.710938 -144.632812 66.359375 -142.28125 C 64.015625 -139.9375 62.84375 -136.082031 62.84375 -130.71875 L 62.84375 -118.40625 C 62.84375 -113.039062 64.015625 -109.1875 66.359375 -106.84375 C 68.710938 -104.5 72.570312 -103.328125 77.9375 -103.328125 L 156.359375 -103.328125 C 170.609375 -103.328125 181 -100.054688 187.53125 -93.515625 C 194.070312 -86.984375 197.34375 -76.675781 197.34375 -62.59375 L 197.34375 -40.21875 C 197.34375 -26.144531 194.070312 -15.796875 187.53125 -9.171875 C 181 -2.554688 170.609375 0.75 156.359375 0.75 Z M 59.328125 0.75 "/></g></g></g><g fill="currentColor" fill-opacity="1"><g transform="translate(838.668378, 373.504124)"><g><path d="M 67.625 0.75 C 37.457031 0.75 22.375 -14.414062 22.375 -44.75 L 22.375 -131.484375 C 22.375 -161.648438 37.457031 -176.734375 67.625 -176.734375 L 174.46875 -176.734375 C 204.632812 -176.734375 219.71875 -161.648438 219.71875 -131.484375 L 219.71875 -44.75 C 219.71875 -14.414062 204.632812 0.75 174.46875 0.75 Z M 161.890625 -33.6875 C 168.097656 -33.6875 172.582031 -35.066406 175.34375 -37.828125 C 178.113281 -40.597656 179.5 -45.082031 179.5 -51.28125 L 179.5 -124.6875 C 179.5 -130.882812 178.113281 -135.40625 175.34375 -138.25 C 172.582031 -141.101562 168.097656 -142.53125 161.890625 -142.53125 L 80.4375 -142.53125 C 74.238281 -142.53125 69.710938 -141.101562 66.859375 -138.25 C 64.015625 -135.40625 62.59375 -130.882812 62.59375 -124.6875 L 62.59375 -51.28125 C 62.59375 -45.082031 64.015625 -40.597656 66.859375 -37.828125 C 69.710938 -35.066406 74.238281 -33.6875 80.4375 -33.6875 Z M 161.890625 -33.6875 "/></g></g></g><g fill="currentColor" fill-opacity="1"><g transform="translate(1068.192447, 373.504124)"><g><path d="M 28.90625 0 C 25.550781 0 23.875 -1.675781 23.875 -5.03125 L 23.875 -170.953125 C 23.875 -174.296875 25.550781 -175.96875 28.90625 -175.96875 L 66.875 -175.96875 C 70.050781 -175.96875 72.734375 -174.628906 74.921875 -171.953125 L 169.9375 -53.546875 L 171.953125 -53.546875 L 171.953125 -170.953125 C 171.953125 -174.296875 173.628906 -175.96875 176.984375 -175.96875 L 206.890625 -175.96875 C 210.242188 -175.96875 211.921875 -174.296875 211.921875 -170.953125 L 211.921875 -5.03125 C 211.921875 -1.675781 210.242188 0 206.890625 0 L 169.4375 0 C 167.757812 0 166.332031 -0.332031 165.15625 -1 C 163.988281 -1.675781 162.816406 -2.769531 161.640625 -4.28125 L 65.859375 -123.1875 L 63.859375 -123.1875 L 63.859375 -5.03125 C 63.859375 -1.675781 62.179688 0 58.828125 0 Z M 28.90625 0 "/></g></g></g><g fill="currentColor" fill-opacity="1"><g transform="translate(1291.431565, 373.504124)"><g><path d="M 168.1875 -175.96875 C 198.351562 -175.96875 213.4375 -160.96875 213.4375 -130.96875 L 213.4375 -45.25 C 213.4375 -15.082031 198.351562 0 168.1875 0 L 28.90625 0 C 25.550781 0 23.875 -1.675781 23.875 -5.03125 L 23.875 -170.953125 C 23.875 -174.296875 25.550781 -175.96875 28.90625 -175.96875 Z M 173.203125 -123.6875 C 173.203125 -129.882812 171.773438 -134.40625 168.921875 -137.25 C 166.078125 -140.101562 161.554688 -141.53125 155.359375 -141.53125 L 64.109375 -141.53125 L 64.109375 -34.6875 L 155.359375 -34.6875 C 161.554688 -34.6875 166.078125 -36.109375 168.921875 -38.953125 C 171.773438 -41.804688 173.203125 -46.335938 173.203125 -52.546875 Z M 173.203125 -123.6875 "/></g></g></g><g fill="currentColor" fill-opacity="1"><g transform="translate(1514.670683, 373.504124)"><g><path d="M 200.859375 -7.296875 C 201.359375 -6.285156 201.609375 -5.28125 201.609375 -4.28125 C 201.609375 -1.425781 199.679688 0 195.828125 0 L 167.171875 0 C 165.328125 0 163.859375 -0.332031 162.765625 -1 C 161.679688 -1.675781 160.722656 -2.9375 159.890625 -4.78125 L 145.8125 -35.703125 L 52.796875 -35.703125 L 38.46875 -4.78125 C 37.789062 -3.101562 36.863281 -1.882812 35.6875 -1.125 C 34.519531 -0.375 33.015625 0 31.171875 0 L 2.265625 0 C 0.421875 0 -0.957031 -0.414062 -1.875 -1.25 C -2.800781 -2.09375 -3.265625 -3.269531 -3.265625 -4.78125 C -3.265625 -5.78125 -3.015625 -6.785156 -2.515625 -7.796875 L 76.421875 -171.453125 C 77.265625 -173.128906 78.226562 -174.300781 79.3125 -174.96875 C 80.40625 -175.632812 81.875 -175.96875 83.71875 -175.96875 L 114.890625 -175.96875 C 116.734375 -175.96875 118.195312 -175.632812 119.28125 -174.96875 C 120.375 -174.300781 121.335938 -173.128906 122.171875 -171.453125 Z M 98.546875 -135.5 L 80.1875 -96.53125 L 66.875 -68.375 L 131.484375 -68.375 L 100.3125 -135.5 Z M 98.546875 -135.5 "/></g></g></g><g fill="currentColor" fill-opacity="1"><g transform="translate(1700.451924, 373.504124)"><g><path d="M 197.34375 -105.078125 C 197.34375 -90.835938 194.070312 -80.445312 187.53125 -73.90625 C 181 -67.375 170.691406 -64.109375 156.609375 -64.109375 L 141.28125 -64.109375 L 194.578125 -8.546875 C 195.921875 -6.867188 196.59375 -5.445312 196.59375 -4.28125 C 196.59375 -2.9375 196.128906 -1.882812 195.203125 -1.125 C 194.285156 -0.375 192.988281 0 191.3125 0 L 158.125 0 C 154.769531 0 151.835938 -1.253906 149.328125 -3.765625 L 92.015625 -64.109375 L 64.109375 -64.109375 L 64.109375 -5.03125 C 64.109375 -1.675781 62.429688 0 59.078125 0 L 28.90625 0 C 25.550781 0 23.875 -1.675781 23.875 -5.03125 L 23.875 -170.953125 C 23.875 -174.296875 25.550781 -175.96875 28.90625 -175.96875 L 156.609375 -175.96875 C 170.691406 -175.96875 181 -172.695312 187.53125 -166.15625 C 194.070312 -159.625 197.34375 -149.320312 197.34375 -135.25 Z M 142.03125 -95.28125 C 147.394531 -95.28125 151.25 -96.453125 153.59375 -98.796875 C 155.945312 -101.140625 157.125 -104.992188 157.125 -110.359375 L 157.125 -128.71875 C 157.125 -134.070312 155.945312 -137.921875 153.59375 -140.265625 C 151.25 -142.617188 147.394531 -143.796875 142.03125 -143.796875 L 64.109375 -143.796875 L 64.109375 -95.28125 Z M 142.03125 -95.28125 "/></g></g></g></svg>